<?xml version="1.0" standalone="no"?>
<!DOCTYPE svg PUBLIC "-//W3C//DTD SVG 20010904//EN"
 "http://www.w3.org/TR/2001/REC-SVG-20010904/DTD/svg10.dtd">
<svg version="1.0" xmlns="http://www.w3.org/2000/svg"
 width="1024.000000pt" height="1024.000000pt" viewBox="0 0 1024.000000 1024.000000"
 preserveAspectRatio="xMidYMid meet">

<g transform="translate(0.000000,1024.000000) scale(0.100000,-0.100000)"
fill="#000000" stroke="none">
<path d="M4671 5660 c0 -14 28 -72 29 -59 0 4 -7 22 -15 40 -8 19 -14 27 -14
19z"/>
<path d="M5351 5491 c-20 -16 -22 -23 -16 -59 4 -23 10 -42 14 -42 4 0 13 19
20 43 7 23 15 50 17 60 7 22 -5 21 -35 -2z"/>
<path d="M4887 5462 c3 -15 7 -34 9 -42 5 -13 6 -13 13 0 13 23 24 66 16 58
-4 -4 -15 -3 -25 2 -15 8 -16 5 -13 -18z"/>
<path d="M6631 5043 c-64 -43 -361 -326 -361 -344 0 -4 -29 -38 -65 -74 -36
-37 -65 -72 -65 -77 0 -6 -28 -40 -63 -76 -102 -109 -129 -149 -135 -199 -3
-25 -11 -47 -18 -50 -8 -3 -14 -9 -14 -13 0 -8 33 -1 72 15 10 4 64 66 120
138 249 316 307 387 420 513 66 74 140 148 164 165 24 17 42 34 39 40 -10 15
-21 11 -94 -38z"/>
<path d="M4225 4949 c4 -41 2 -67 -9 -94 -15 -35 -18 -37 -48 -31 -17 3 -40
14 -50 23 -10 9 -18 12 -18 7 0 -13 238 -249 245 -243 3 3 -13 54 -35 113 -21
59 -42 122 -46 141 -3 20 -10 38 -15 41 -5 3 -9 20 -9 37 0 18 -5 39 -11 47
-7 11 -9 -1 -4 -41z"/>
<path d="M3598 4948 c17 -24 49 -61 73 -84 63 -59 157 -161 207 -224 23 -30
63 -80 87 -112 93 -118 154 -202 150 -207 -3 -2 -13 3 -23 12 -24 21 -28 21
-51 -2 -20 -20 -20 -20 12 -30 18 -5 50 -12 72 -16 39 -6 254 -69 278 -80 7
-4 -2 6 -19 22 -17 15 -71 73 -120 129 -49 55 -136 145 -194 200 -58 54 -132
126 -166 159 -33 33 -87 80 -119 105 -88 68 -116 91 -155 133 -49 51 -68 48
-32 -5z"/>
<path d="M6010 4705 c-7 -8 -21 -15 -31 -15 -20 0 -53 -43 -47 -61 2 -6 28 11
58 39 30 28 50 51 44 52 -6 0 -17 -7 -24 -15z"/>
<path d="M5100 4361 c0 -22 5 -43 10 -46 6 -4 10 10 10 34 0 22 -4 43 -10 46
-6 4 -10 -10 -10 -34z"/>
<path d="M6058 4259 c-19 -11 -24 -29 -9 -29 5 0 22 5 38 11 22 8 24 12 13 19
-18 12 -21 12 -42 -1z"/>
</g>
</svg>
